<?xml version="1.0" encoding="UTF-8" standalone="no"?>
<svg width="800" height="300" xmlns="http://www.w3.org/2000/svg">
  <rect x="0" y="0" width="800" height="300" fill="white"/>
  <line x1="50" y1="250" x2="750" y2="250" stroke="black" stroke-width="2"/>
  <line x1="50" y1="250" x2="50" y2="50" stroke="black" stroke-width="2"/>
  <text x="575" y="280" font-size="12" fill="black">Time (seconds from start)</text>
  <text x="0" y="15" font-size="12" fill="black" transform="rotate(270, 25, 25)">Values</text>
  <polyline
          points="50,227.167 51,217.218 52,213.456 53,202.988 54,194.572 55,198.244 56,166.304 57,194.914 58,216.986 59,212.187 60,193.66 61,204.414 62,209.542 63,210.906 64,217.115 65,215.569 66,219.231 67,219.365 68,211.863 69,208.893 70,207.381 71,207.603 72,213.776 73,221.701 74,203.571 75,203.484 76,233.99 77,215.856 78,208.062 79,210.986 80,210.484 81,212.786 82,209.087 83,218.807 84,175.457 85,191.978 86,207.528 87,207.693 88,203.853 89,217.425 90,208.256 91,180.742 92,209.595 93,188.476 94,202.943 95,204.382 96,204.979 97,192.619 98,232.529 99,219.637 100,210.107 101,212.231 102,212.203 103,221.024 104,213.518 105,210.57 106,201.448 107,196.23 108,215.146 109,215.323 110,198.41 111,158.114 112,200.605 113,211.983 114,201.8 115,220.668 116,218.55 117,182.345 118,190.863 119,190.72 120,184.777 121,185.494 122,224.23 123,214.684 124,231.631 125,221.117 126,222.026 127,187.302 128,205.875 129,204.834 130,205.834 131,209.036 132,209.199 133,178.808 134,167.526 135,178.346 136,182.596 137,175.852 138,214.881 139,210.078 140,208.427 141,211.157 142,220.466 143,224.944 144,223.001 145,224.332 146,219.578 147,225.664 148,222.676 149,222.676 150,221.645 151,223.747 152,224.034 153,227.694 154,226.032 155,225.948 156,225.054 157,225.391 158,224.483 159,225.761 160,224.552 161,225.322 162,225.522 163,223.131 164,226.066 165,209.525 166,216.403 167,224.07 168,222.841 169,224.831 170,223.682 171,221.987 172,224.585 173,223.816 174,221.412 175,223.347 176,222.322 177,219.216 178,228.355 179,215.578 180,214.905 181,217.056 182,219.065 183,216.21 184,215.076 185,215.732 186,215.076 187,215.562 188,215.732 189,215.732 190,214.905 191,214.403 192,214.905 193,215.076 194,215.732 195,214.905 196,215.562 197,214.403 198,216.881 199,216.381 200,219.694 201,216.044 202,216.381 203,220.096 204,217.716 205,217.716 206,217.214 207,216.554 208,216.064 209,210.311 210,210.265 211,213.171 212,211.19 213,212.669 214,212.342 215,212.021 216,212.021 217,212.523 218,212.059 219,211.84 220,213.139 221,212.021 222,212.021 223,212.31 224,212.523 225,212.342 226,212.704 227,211.84 228,211.84 229,211.157 230,205.409 231,209.62 232,209.763 233,209.576 234,208.887 235,209.118 236,210.265 237,210.265 238,210.409 239,209.576 240,210.224 241,211.373 242,209.763 243,200.429 244,207.97 245,209.722 246,211.923 247,208.616 248,209.763 249,209.722 250,210.871 251,210.224 252,210.409 253,206.287 254,207.187 255,209.356 256,210.078 257,209.261 258,210.726 259,209.118 260,209.62 261,209.62 262,211.141 263,208.096 264,147.06 265,153.413 266,153.626 267,143.824 268,186.062 269,177.214 270,182.873 271,197.52 272,195.263 273,189.074 274,198.483 275,163.504 276,250 277,224.364 278,218.06 279,211.258 280,221.386 281,207.384 282,210.974 283,210.147 284,212.636 285,203.13 286,206.592 287,216.588 288,214.556 289,215.924 290,216.654 291,215.751 292,217.066 293,225.241 294,211.102 295,220.966 296,219.931 297,211.739 298,211.645 299,213.04 300,214.777 301,212.472 302,215.416 303,212.595 304,212.351 305,213.097 306,213.735 307,214.613 308,214.747 309,214.278 310,215.383 311,215.014 312,214.142 313,214.747 314,216.121 315,216.861 316,216.861 317,216.861 318,215.617 319,212.775 320,218.418 321,217.825 322,221.743 323,210.946 324,221.073 325,203.192 326,197.213 327,201.148 328,190.474 329,178.318 330,197.797 331,189.095 332,180.995 333,171.184 334,202.641 335,200.709 336,188.969 337,206.231 338,194.991 339,206.94 340,219.693 341,217.603 342,220.313 343,216.357 344,199.096 345,201.267 346,199.231 347,200.265 348,199.834 349,197.942 350,197.633 351,200.265 352,202.271 353,202.745 354,212.619 355,201.094 356,210.182 357,210.989 358,212.341 359,212.069 360,212.717 361,212.215 362,212.164 363,210.026 364,211.262 365,210.567 366,210.416 367,185.003 368,186.005 369,203.459 370,187.877 371,172.846 372,179.662 373,181.447 374,191.354 375,192.812 376,188.065 377,162.987 378,182.491 379,200.471 380,195.932 381,202.687 382,213.245 383,224.335 384,208.608 385,209.478 386,206.52 387,198.932 388,202.678 389,199.883 390,203.238 391,204.285 392,207.665 393,201.458 394,212.672 395,197.763 396,182.475 397,165.901 398,189.952 399,100 400,208.604 401,202.433 402,220.978 403,137.735 404,137.563 405,137.833 406,146.042 407,132.551 408,133.742 409,167.854 410,147.157 411,137.424 412,148.915 413,189.246 414,178.982 415,162.813 416,161.527 417,199.451 418,194.522 419,139.857 420,119.967 421,125.226 422,133.702 423,132.477 424,134.115 425,166.559 426,224.203 427,170.794 428,162.418 429,216.555 430,187.538 431,180.003 432,195.602 433,201.808 434,203.426 435,218.992 436,197.906 437,185.859 438,209.06 439,207.861 440,195.268 441,143.802 442,152.028 443,159.489 444,154.818 445,153.247 446,155.834 447,152.962 448,156.138 449,155.068 450,155.796 451,156.221 452,154.819 453,157.423 454,165.312 455,157.867 456,158.77 457,158.286 458,158.646 459,158.428 460,159.683 461,158.286 462,160.039 463,158.841 464,158.825 465,159.537 466,160.25 467,160.104 468,161.149 469,161.149 470,161.149 471,160.104 472,160.441 473,160.795 474,163.098 475,169.878 476,156.921 477,167.185 478,158.679 479,156.419 480,160.279 481,158.409 482,158.89 483,151.436 484,157.967 485,155.579 486,156.638 487,159.812 488,159.269 489,158.89 490,161.186 491,160.499 492,163.452 493,159.392 494,159.181 495,158.339 496,160.46 497,159.055 498,159.748 499,159.748 500,159.748 501,159.748 502,158.553 503,158.195 504,159.246 505,159.602 506,159.269 507,159.958 508,160.647 509,159.1 510,158.629 511,162.951 512,163.846 513,163.512 514,162.301 515,163.344 516,166.789 517,162.655 518,162.323 519,163.94 520,162.242 521,194.048 522,161.771 523,161.837 524,163.601 525,163.246 526,162.76 527,164.295 528,164.648 529,164.648 530,164.146 531,163.955 532,165.34 533,164.838 534,164.838 535,164.498 536,164.498 537,166.576 538,167.078 539,167.078 540,166.917 541,166.228 542,165.889 543,166.73 544,166.73 545,165.704 546,166.391 547,166.228 548,167.263 549,166.576 550,167.078 551,166.041 552,167.078 553,166.391 554,165.889 555,165.539 556,166.543 557,167.232 558,167.58 559,166.041 560,165.037 561,168.123 562,168.639 563,167.61 564,169.824 565,167.61 566,166.24 567,167.61 568,167.273 569,166.925 570,166.925 571,167.61 572,166.925 573,169.699 574,164.445 575,168.112 576,166.576 577,166.228 578,166.041 579,166.041 580,166.73 581,166.73 582,166.041 583,166.041 584,166.73 585,167.078 586,166.73 587,166.73 588,166.73 589,166.041 590,166.617 591,165.037 592,170.19 593,168.668 594,170.023 595,163.305 596,166.917 597,165.037 598,166.074 599,163.644 600,165.889 601,166.228 602,165.726 603,164.85 604,165.037 605,165.539 606,165.037 607,165.037 608,165.037 609,165.889 610,165.037 611,165.539 612,165.539 613,164.7 614,165.037 615,166.576 616,165.539 617,165.037 618,165.037 619,166.228 620,164.348 621,166.228 622,163.996 623,164.348 624,165.539 625,164.516 626,163.305 627,166.571 628,165.037 629,165.539 630,165.539 631,165.539 632,165.88 633,165.539 634,164.348 635,165.539 636,164.348 637,164.348 638,165.539 639,165.539 640,165.539 641,165.539 642,165.88 643,166.228 644,165.889 645,165.889 646,165.539 647,165.539 648,165.539 649,165.189 650,165.539 651,166.074 652,166.228 653,165.189 654,165.539 655,165.539 656,165.037 657,165.539 658,164.7 659,165.037 660,164.348 661,164.348 662,165.037 663,164.348 664,164.348 665,164.498 666,162.112 667,165.189 668,162.449 669,162.449 670,162.449 671,162.449 672,163.142 673,163.644 674,161.923 675,163.453 676,163.807 677,163.644 678,163.644 679,162.951 680,163.644 681,162.449 682,162.449 683,163.142 684,163.644 685,163.644 686,163.644 687,162.803 688,163.142 689,162.951 690,163.846 691,165.029 692,164.687 693,163.659 694,163.494 695,163.846 696,161.421 697,162.449 698,163.484 699,158.286 700,150.113 701,158.626 702,159.486 703,159.272 704,159.272 705,158.054 706,154.861 707,158.054 708,159.262 709,157.707 710,158.77 711,157.347 712,156.64 713,158.914 714,157.707 715,158.209 716,157.528 717,181.344 718,148.201 719,151.676 720,152.822 721,148.978 722,158.351 723,160.833 724,161.691 725,161.335 726,161.335 727,161.691 728,159.774 729,158.711 730,157.849 731,157.849 732,158.007 733,158.351 734,156.418 735,156.418 736,158.341 737,157.644 738,158.209 739,158.711 740,158.711 741,159.65 742,158.089 743,159.845 744,157.642 745,159.701 746,161.032 747,155.625 748,161.108 749,158.93 "
          fill="none" stroke="green" stroke-width="2"/>
  <polyline
          points="50,177.71 51,154.379 52,139.466 53,162.156 54,158.267 55,170.264 56,176.602 57,180.141 58,182.902 59,185.099 60,187.257 61,188.074 62,188.929 63,189.785 64,190.407 65,190.835 66,191.204 67,191.534 68,191.826 69,192.196 70,192.526 71,192.915 72,193.187 73,193.673 74,193.887 75,194.004 76,194.12 77,194.237 78,194.334 79,194.431 80,194.393 81,194.412 82,194.626 83,194.743 84,194.937 85,194.995 86,195.054 87,194.956 88,194.801 89,194.431 90,194.159 91,193.965 92,193.809 93,193.712 94,193.576 95,193.44 96,193.187 97,192.934 98,192.701 99,192.409 100,192.079 101,191.729 102,191.359 103,190.951 104,190.543 105,190.135 106,189.746 107,189.337 108,188.89 109,188.404 110,188.054 111,188.404 112,189.279 113,188.054 114,188.346 115,187.238 116,186.46 117,185.935 118,185.488 119,185.06 120,184.457 121,184.224 122,183.971 123,183.738 124,183.485 125,183.31 126,183.116 127,182.96 128,182.727 129,182.513 130,182.28 131,181.988 132,181.657 133,181.152 134,180.821 135,180.588 136,180.374 137,180.141 138,179.946 139,179.752 140,179.557 141,179.266 142,178.78 143,178.333 144,177.808 145,177.322 146,176.777 147,176.31 148,175.902 149,175.572 150,175.241 151,174.852 152,174.405 153,173.958 154,173.569 155,173.18 156,172.908 157,172.655 158,172.402 159,172.208 160,172.033 161,171.916 162,171.819 163,171.78 164,171.78 165,171.78 166,171.741 167,171.78 168,171.839 169,171.975 170,172.13 171,172.402 172,172.5 173,172.694 174,172.85 175,172.947 176,172.947 177,172.888 178,172.752 179,172.597 180,172.519 181,172.305 182,172.072 183,171.78 184,171.586 185,171.333 186,171.061 187,170.808 188,170.614 189,170.38 190,170.166 191,169.933 192,169.778 193,169.797 194,169.7 195,169.486 196,169.291 197,169.097 198,168.864 199,168.63 200,168.475 201,168.378 202,168.378 203,168.378 204,168.378 205,168.417 206,168.514 207,168.611 208,168.708 209,168.825 210,168.903 211,169 212,169.097 213,169.155 214,169.155 215,169.155 216,169.117 217,169.097 218,169.097 219,169.117 220,169.155 221,169.214 222,169.35 223,169.486 224,169.603 225,169.739 226,169.894 227,169.991 228,170.089 229,170.166 230,170.225 231,170.264 232,170.322 233,170.38 234,170.419 235,170.458 236,170.516 237,170.555 238,170.575 239,170.575 240,170.614 241,170.614 242,170.653 243,170.672 244,170.672 245,170.672 246,170.711 247,170.711 248,170.711 249,170.672 250,170.653 251,170.672 252,170.711 253,170.653 254,170.614 255,170.653 256,170.653 257,170.653 258,170.653 259,170.653 260,170.653 261,170.614 262,170.575 263,170.516 264,170.478 265,170.458 266,170.478 267,170.555 268,170.653 269,170.672 270,170.711 271,170.769 272,170.808 273,170.847 274,170.847 275,170.769 276,170.75 277,170.711 278,170.575 279,170.283 280,170.03 281,169.739 282,169.389 283,169.019 284,168.63 285,168.242 286,167.989 287,167.794 288,167.639 289,167.464 290,167.347 291,167.269 292,167.211 293,167.153 294,167.017 295,166.881 296,166.783 297,166.764 298,166.764 299,166.764 300,166.764 301,166.764 302,166.725 303,166.667 304,166.628 305,166.667 306,166.667 307,166.822 308,166.958 309,167.056 310,167.017 311,167.017 312,166.978 313,166.958 314,166.919 315,166.958 316,167.056 317,167.211 318,167.367 319,167.503 320,167.464 321,167.464 322,167.269 323,167.114 324,167.017 325,166.861 326,166.569 327,166.278 328,165.85 329,165.617 330,165.403 331,165.17 332,164.917 333,164.722 334,164.683 335,164.256 336,163.867 337,163.478 338,163.167 339,162.895 340,162.642 341,162.389 342,162.117 343,161.767 344,161.378 345,161.028 346,160.542 347,160.056 348,159.492 349,158.909 350,158.326 351,157.976 352,157.626 353,157.295 354,157.042 355,156.615 356,156.265 357,155.779 358,155.059 359,154.126 360,153.251 361,152.24 362,151.365 363,150.646 364,149.965 365,149.265 366,148.643 367,147.923 368,147.418 369,146.932 370,146.932 371,146.893 372,146.932 373,146.951 374,147.126 375,147.224 376,147.146 377,147.029 378,146.893 379,146.796 380,146.893 381,147.224 382,147.729 383,148.293 384,148.779 385,149.187 386,149.673 387,150.237 388,150.743 389,151.112 390,151.307 391,151.462 392,151.754 393,151.948 394,152.045 395,152.629 396,153.212 397,153.756 398,154.379 399,155.156 400,155.837 401,156.517 402,157.353 403,158.306 404,159.239 405,160.153 406,161.028 407,162.059 408,163.07 409,164.139 410,165.111 411,165.792 412,166.336 413,166.667 414,166.919 415,167.405 416,167.794 417,168.28 418,168.922 419,169.836 420,170.653 421,171.625 422,172.461 423,173.18 424,173.783 425,174.366 426,174.891 427,175.377 428,175.708 429,176.019 430,175.922 431,175.805 432,175.669 433,175.513 434,175.183 435,174.891 436,174.736 437,174.638 438,174.405 439,174.249 440,174.074 441,174.074 442,174.152 443,174.249 444,174.347 445,174.561 446,174.755 447,174.949 448,175.144 449,175.338 450,175.63 451,175.922 452,176.291 453,176.68 454,177.069 455,177.458 456,177.866 457,178.255 458,178.624 459,178.721 460,178.877 461,179.033 462,179.013 463,178.683 464,178.43 465,178.158 466,177.905 467,177.458 468,177.088 469,176.68 470,176.31 471,175.922 472,175.63 473,175.533 474,175.513 475,175.436 476,175.436 477,175.416 478,175.474 479,175.572 480,175.708 481,175.766 482,175.824 483,175.863 484,175.902 485,175.922 486,175.96 487,175.922 488,175.902 489,175.922 490,176.019 491,176.116 492,176.155 493,176.194 494,176.252 495,176.31 496,176.349 497,176.31 498,176.447 499,176.583 500,176.699 501,176.485 502,176.194 503,175.824 504,175.436 505,175.027 506,174.599 507,174.074 508,173.686 509,173.375 510,173.141 511,172.947 512,172.655 513,172.402 514,172.111 515,171.741 516,171.255 517,170.847 518,170.361 519,169.991 520,169.641 521,169.311 522,169.019 523,169 524,168.961 525,168.922 526,168.922 527,168.922 528,168.922 529,168.961 530,169 531,169.097 532,169.194 533,169.291 534,169.408 535,169.544 536,169.603 537,169.7 538,169.739 539,169.739 540,169.7 541,169.7 542,169.68 543,169.68 544,169.68 545,169.68 546,169.68 547,169.7 548,169.778 549,169.797 550,169.836 551,169.875 552,169.933 553,170.03 554,170.166 555,170.264 556,170.361 557,170.458 558,170.555 559,170.575 560,170.575 561,170.555 562,170.516 563,170.478 564,170.458 565,170.458 566,170.458 567,170.419 568,170.38 569,170.283 570,170.166 571,169.972 572,169.797 573,169.641 574,169.544 575,169.486 576,169.544 577,169.641 578,169.778 579,169.972 580,170.128 581,170.264 582,170.322 583,170.38 584,170.419 585,170.458 586,170.478 587,170.516 588,170.555 589,170.575 590,170.653 591,170.672 592,170.711 593,170.75 594,170.75 595,170.75 596,170.75 597,170.711 598,170.653 599,170.575 600,170.516 601,170.419 602,170.322 603,170.166 604,170.03 605,169.894 606,169.778 607,169.68 608,169.583 609,169.544 610,169.544 611,169.583 612,169.641 613,169.7 614,169.739 615,169.739 616,169.739 617,169.7 618,169.641 619,169.544 620,169.447 621,169.35 622,169.291 623,169.214 624,169.155 625,169.097 626,169.058 627,169.058 628,169.058 629,169.117 630,169.194 631,169.291 632,169.35 633,169.408 634,169.486 635,169.544 636,169.505 637,169.447 638,169.35 639,169.214 640,169.097 641,168.961 642,168.903 643,168.825 644,168.805 645,168.805 646,168.825 647,168.903 648,168.961 649,169.058 650,169.155 651,169.253 652,169.35 653,169.447 654,169.505 655,169.544 656,169.583 657,169.603 658,169.68 659,169.7 660,169.778 661,169.875 662,169.991 663,170.186 664,170.361 665,170.516 666,170.672 667,170.769 668,170.847 669,170.847 670,170.808 671,170.75 672,170.653 673,170.575 674,170.516 675,170.478 676,170.458 677,170.458 678,170.458 679,170.458 680,170.458 681,170.458 682,170.419 683,170.38 684,170.419 685,170.478 686,170.555 687,170.614 688,170.672 689,170.711 690,170.711 691,170.711 692,170.672 693,170.614 694,170.516 695,170.419 696,170.322 697,170.225 698,170.166 699,170.128 700,170.128 701,170.128 702,170.128 703,170.128 704,170.128 705,170.069 706,169.894 707,169.68 708,169.408 709,169.117 710,168.864 711,168.611 712,168.417 713,168.242 714,168.144 715,168.047 716,167.95 717,167.833 718,167.658 719,167.542 720,167.444 721,167.308 722,167.211 723,167.114 724,167.056 725,166.958 726,166.861 727,166.764 728,166.628 729,166.492 730,166.433 731,166.375 732,166.297 733,166.239 734,166.181 735,166.142 736,166.103 737,166.083 738,166.044 739,166.083 740,166.142 741,166.239 742,166.336 743,166.433 744,166.492 745,166.492 746,166.472 747,166.394 748,166.297 749,166.239 "
          fill="none" stroke="blue" stroke-width="2"/>
  <text x="450" y="30" font-size="19" class="speed-description" fill="black" text-anchor="middle">Correlation Between
    Heart rate (blue) and Accelerometer (green)
  </text>
  <text x="450" y="50" class="speed-description" font-size="11" fill="gray" text-anchor="middle">equation: 0.999914 +
    (0.999614 Z ) - (1.00048 Z ) - (0.999253 Z ) * (0.999536 X ) + (1.00002 X ) - (0.999968 Y )
  </text>
  <text x="450" y="65" class="speed-description" font-size="11" fill="gray" text-anchor="middle">correlation: 0.433657
  </text>
  <text x="50" y="265" font-size="12" fill="black">0</text>
  <text x="100" y="265" font-size="12" fill="black">50</text>
  <text x="150" y="265" font-size="12" fill="black">100</text>
  <text x="200" y="265" font-size="12" fill="black">150</text>
  <text x="250" y="265" font-size="12" fill="black">200</text>
  <text x="300" y="265" font-size="12" fill="black">250</text>
  <text x="350" y="265" font-size="12" fill="black">300</text>
  <text x="400" y="265" font-size="12" fill="black">350</text>
  <text x="450" y="265" font-size="12" fill="black">400</text>
  <text x="500" y="265" font-size="12" fill="black">450</text>
  <text x="550" y="265" font-size="12" fill="black">500</text>
  <text x="600" y="265" font-size="12" fill="black">550</text>
  <text x="650" y="265" font-size="12" fill="black">600</text>
  <text x="700" y="265" font-size="12" fill="black">650</text>
  <text x="15" y="50" font-size="12" fill="black">1</text>
  <text x="15" y="80" font-size="12" fill="black">0.86</text>
  <text x="15" y="110" font-size="12" fill="black">0.72</text>
  <text x="15" y="140" font-size="12" fill="black">0.58</text>
  <text x="15" y="170" font-size="12" fill="black">0.44</text>
  <text x="15" y="200" font-size="12" fill="black">0.3</text>
  <text x="15" y="230" font-size="12" fill="black">0.16</text>
</svg>
