<?xml version="1.0" encoding="UTF-8" standalone="no"?>
<svg width="800" height="300" xmlns="http://www.w3.org/2000/svg">
  <rect x="0" y="0" width="800" height="300" fill="white"/>
  <line x1="50" y1="250" x2="750" y2="250" stroke="black" stroke-width="2"/>
  <line x1="50" y1="250" x2="50" y2="50" stroke="black" stroke-width="2"/>
  <text x="575" y="280" font-size="12" fill="black">Time (seconds from start)</text>
  <text x="0" y="15" font-size="12" fill="black" transform="rotate(270, 25, 25)">Values</text>
  <polyline
          points="50,135.737 51,152.674 52,148.196 53,161.364 54,120.299 55,130.811 56,132.942 57,121.621 58,100.303 59,106.128 60,100 61,117.277 62,232.607 63,180.575 64,173.368 65,190.836 66,195.33 67,169.332 68,212.522 69,223.215 70,163.785 71,186.738 72,132.117 73,146.184 74,159.236 75,159.3 76,159.962 77,159.962 78,159.962 79,158.581 80,158.512 81,240.94 82,204.005 83,199.282 84,179.934 85,188.079 86,182.932 87,182.218 88,179.231 89,191.675 90,194.989 91,194.988 92,207.089 93,235.154 94,211.323 95,207.492 96,170.155 97,175.688 98,171.619 99,172.258 100,171.677 101,172.944 102,175.02 103,176.373 104,175.048 105,176.381 106,176.381 107,178.421 108,176.467 109,179.771 110,179.781 111,182.503 112,174.373 113,175.089 114,176.399 115,176.399 116,175.05 117,176.399 118,171.076 119,177.761 120,180.462 121,181.795 122,178.42 123,172.131 124,223.828 125,232.132 126,226.138 127,229.593 128,242.459 129,242.729 130,240.945 131,230.259 132,227.825 133,233.602 134,131.752 135,177.844 136,178.607 137,179.197 138,179.788 139,179.197 140,179.967 141,179.968 142,179.196 143,179.384 144,179.79 145,179.79 146,179.002 147,178.423 148,179.002 149,178.643 150,178.875 151,178.07 152,178.643 153,178.643 154,178.643 155,178.423 156,178.423 157,179.002 158,178.423 159,178.423 160,181.137 161,180.552 162,180.377 163,180.213 164,180.377 165,180.739 166,180.739 167,175.777 168,174.707 169,175.876 170,175.065 171,174.707 172,174.707 173,174.707 174,174.707 175,174.707 176,175.876 177,174.476 178,174.707 179,175.291 180,174.707 181,174.851 182,175.066 183,174.648 184,175.065 185,175.656 186,175.656 187,175.656 188,175.876 189,178.799 190,176.246 191,177.045 192,171.42 193,174.707 194,174.95 195,176.108 196,173.538 197,174.851 198,176.836 199,173.764 200,174.949 201,151.618 202,163.615 203,145.943 204,150.152 205,151.209 206,151.21 207,150.631 208,151.209 209,151.209 210,153.526 211,149.823 212,153.414 213,152.841 214,151.694 215,153.325 216,152.268 217,151.694 218,152.267 219,151.12 220,152.268 221,151.694 222,151.694 223,152.19 224,152.19 225,152.19 226,150.737 227,151.906 228,149.685 229,149.473 230,152.268 231,152.758 232,152.368 233,152.268 234,151.789 235,149.685 236,152.841 237,152.758 238,151.694 239,151.694 240,152.491 241,152.268 242,151.694 243,151.694 244,152.268 245,153.821 246,161.099 247,149.564 248,155.587 249,155.414 250,155.263 251,154.83 252,156.165 253,155.263 254,155.842 255,155.842 256,154.83 257,155.842 258,155.264 259,155.264 260,155.264 261,155.264 262,154.83 263,154.83 264,155.842 265,156.422 266,156.768 267,155.842 268,154.245 269,155.414 270,157.007 271,210.713 272,214.711 273,216.13 274,217.96 275,217.568 276,220.444 277,217.959 278,216.508 279,219.41 280,217.567 281,218.684 282,217.632 283,219.094 284,218.363 285,219.824 286,219.094 287,217.633 288,217.632 289,217.633 290,218.363 291,219.094 292,219.094 293,218.778 294,218.778 295,217.633 296,217.236 297,220.688 298,219.824 299,219.411 300,220.861 301,219.093 302,219.824 303,222.17 304,215.786 305,182.099 306,186.997 307,185.791 308,187.042 309,185.753 310,186.417 311,184.427 312,185.753 313,185.09 314,185.059 315,183.754 316,183.754 317,184.407 318,184.411 319,184.411 320,185.059 321,184.411 322,183.754 323,170.888 324,163.286 325,163.727 326,163.727 327,163.097 328,163.097 329,163.727 330,163.097 331,163.964 332,163.097 333,163.34 334,161.595 335,163.964 336,163.34 337,161.838 338,163.34 339,162.716 340,156.175 341,213.858 342,225.761 343,203.732 344,228.896 345,115.173 346,144.692 347,144.292 348,143.979 349,142.674 350,141.003 351,139.03 352,141.661 353,141.31 354,132.244 355,133.219 356,135.257 357,129.849 358,131.134 359,131.358 360,132.45 361,128.345 362,130.933 363,134.99 364,135.726 365,137.28 366,137.28 367,137.754 368,138.636 369,136.181 370,136.65 371,136.02 372,135.927 373,136.367 374,135.281 375,135.499 376,135.726 377,135.085 378,134.634 379,133.341 380,132.89 381,132.694 382,132.694 383,153.661 384,182.873 385,200.16 386,201.894 387,192.796 388,180.759 389,182.5 390,195.649 391,201.802 392,194.422 393,193.822 394,188.226 395,237.973 396,210.102 397,217.964 398,217.914 399,214.672 400,217.345 401,214.305 402,213.634 403,219.202 404,227.412 405,221.848 406,225.02 407,226.621 408,231.425 409,216.088 410,232.675 411,236.653 412,223.582 413,227.686 414,234.538 415,233.715 416,232.819 417,214.142 418,182.476 419,186.822 420,188.264 421,189.905 422,189.819 423,189.15 424,129.492 425,219.371 426,222.99 427,222.201 428,221.327 429,211.527 430,209.636 431,221.2 432,213.445 433,188.893 434,209.637 435,212.163 436,216.514 437,217.339 438,208.037 439,208.733 440,211.527 441,214.269 442,211.056 443,232.138 444,152.38 445,167.684 446,164.1 447,164.1 448,163.555 449,162.932 450,164.645 451,166.826 452,164.902 453,164.113 454,165.865 455,166.572 456,167.129 457,168.242 458,166.751 459,166.572 460,166.385 461,167.685 462,166.572 463,166.751 464,168.999 465,169.169 466,167.875 467,166.189 468,168.463 469,168.241 470,165.817 471,165.627 472,166.016 473,166.016 474,166.572 475,166.572 476,170.097 477,166.189 478,167.52 479,168.242 480,167.313 481,167.372 482,169.008 483,166.415 484,166.827 485,166.827 486,165.864 487,169.008 488,168.75 489,169.285 490,168.75 491,168.328 492,167.789 493,169.72 494,158.703 495,164.185 496,172.336 497,174.919 498,176.331 499,176.331 500,176.641 501,176.882 502,176.641 503,176.423 504,175.55 505,175.883 506,175.883 507,176.227 508,176.227 509,176.227 510,176.227 511,175.883 512,175.883 513,176.227 514,176.227 515,175.693 516,176.053 517,176.227 518,176.227 519,176.761 520,175.883 521,176.962 522,176.423 523,176.962 524,176.423 525,176.962 526,177.829 527,176.962 528,176.962 529,178.041 530,177.502 531,178.363 532,177.295 533,177.295 534,177.501 535,178.876 536,176.761 537,178.167 538,177.501 539,177.639 540,177.433 541,177.145 542,177.295 543,168.278 544,175.342 545,129.487 546,179.032 547,250 548,218.61 549,163.268 550,159.597 551,218.133 552,208.132 553,203.221 554,174.169 555,168.391 556,171.512 557,173.121 558,171.512 559,173.592 560,168.937 561,174.166 562,174.167 563,173.593 564,174.632 565,176.257 566,173.592 567,171.512 568,172.553 569,173.592 570,167.856 571,173.027 572,170.958 573,172.551 574,171.512 575,172.553 576,171.512 577,172.551 578,172.553 579,171.512 580,172.553 581,171.512 582,172.553 583,171.512 584,171.512 585,171.993 586,171.512 587,172.553 588,171.512 589,171.512 590,171.512 591,171.512 592,171.512 593,173.592 594,171.512 595,171.512 596,171.512 597,171.512 598,172.553 599,171.512 600,172.551 601,172.553 602,171.512 603,171.993 604,171.512 605,171.512 606,171.512 607,171.512 608,171.512 609,172.551 610,171.512 611,170.473 612,171.512 613,171.512 614,170.958 615,171.512 616,172.551 617,171.512 618,171.512 619,171.512 620,172.551 621,170.958 622,171.512 623,171.512 624,171.512 625,171.512 626,171.512 627,171.512 628,171.512 629,171.512 630,171.512 631,171.512 632,172.553 633,172.551 634,170.473 635,171.512 636,171.993 637,171.512 638,172.553 639,170.473 640,170.473 641,171.512 642,170.472 643,171.512 644,171.511 645,171.511 646,168.392 647,171.032 648,175.094 649,167.855 650,165.785 651,168.392 652,169.432 653,167.856 654,167.352 655,168.392 656,169.923 657,169.431 658,168.392 659,168.392 660,168.392 661,168.392 662,168.392 663,167.352 664,168.392 665,167.352 666,168.392 667,168.392 668,167.352 669,168.392 670,169.431 671,168.392 672,168.392 673,169.431 674,167.352 675,168.392 676,169.431 677,168.391 678,169.431 679,167.855 680,169.431 681,169.431 682,168.392 683,167.352 684,168.391 685,168.392 686,167.352 687,168.391 688,167.352 689,166.312 690,167.352 691,168.392 692,167.855 693,168.392 694,166.312 695,168.392 696,166.821 697,168.392 698,168.392 699,168.392 700,168.392 701,167.352 702,168.392 703,167.353 704,168.392 705,168.392 706,166.821 707,168.392 708,168.392 709,168.392 710,167.352 711,168.392 712,168.392 713,168.392 714,168.392 715,168.392 716,168.392 717,167.855 718,167.855 719,168.392 720,167.353 721,169.431 722,166.893 723,192.047 724,195.226 725,208.458 726,185.653 727,189.423 728,159.108 729,210.052 730,177.733 731,181.596 732,182.093 733,182.634 734,182.724 735,192.982 736,185.697 737,192.163 738,195.306 739,219.208 740,161.739 741,162.357 742,166.564 743,166.564 744,166.564 745,169.238 746,121.322 747,150.631 748,140.335 749,113.481 "
          fill="none" stroke="green" stroke-width="2"/>
  <polyline
          points="50,189.376 51,205.985 52,218.065 53,205.23 54,203.569 55,196.926 56,192.396 57,189.195 58,186.854 59,184.997 60,183.88 61,182.581 62,181.6 63,180.86 64,180.014 65,179.275 66,178.807 67,178.308 68,177.855 69,177.75 70,177.734 71,176.813 72,176.043 73,175.409 74,174.881 75,174.805 76,174.73 77,174.594 78,174.428 79,174.08 80,173.839 81,173.658 82,173.401 83,173.25 84,173.159 85,173.099 86,173.054 87,172.963 88,172.888 89,172.842 90,172.842 91,172.842 92,172.842 93,172.903 94,172.963 95,173.069 96,173.19 97,173.295 98,173.416 99,173.522 100,173.658 101,173.748 102,173.899 103,174.05 104,174.201 105,174.337 106,174.594 107,174.775 108,174.896 109,174.956 110,174.775 111,174.05 112,173.069 113,173.341 114,173.325 115,173.778 116,174.247 117,174.624 118,174.986 119,175.288 120,175.485 121,175.787 122,176.089 123,176.391 124,176.768 125,177.221 126,177.644 127,178.082 128,178.505 129,178.837 130,179.139 131,179.758 132,180.392 133,180.951 134,181.479 135,181.857 136,182.249 137,182.627 138,183.034 139,183.533 140,184.061 141,184.499 142,185.027 143,185.496 144,185.933 145,186.386 146,186.885 147,187.156 148,187.413 149,187.685 150,187.942 151,188.168 152,188.44 153,188.666 154,189.029 155,189.421 156,189.829 157,190.237 158,190.629 159,191.007 160,191.369 161,191.716 162,192.049 163,192.351 164,192.653 165,192.894 166,193 167,193.151 168,193.423 169,193.785 170,194.163 171,194.706 172,195.295 173,195.824 174,196.216 175,196.699 176,197.122 177,197.681 178,198.058 179,198.587 180,199.085 181,199.613 182,199.991 183,200.353 184,200.701 185,200.957 186,201.123 187,201.335 188,201.607 189,201.788 190,201.984 191,202.135 192,202.543 193,203.041 194,203.569 195,204.128 196,204.581 197,205.155 198,205.729 199,206.257 200,206.695 201,207.239 202,207.752 203,208.22 204,208.733 205,209.186 206,209.564 207,210.213 208,210.893 209,211.542 210,212.221 211,212.931 212,213.505 213,214.064 214,214.486 215,214.773 216,215 217,215.166 218,215.347 219,215.498 220,215.604 221,215.77 222,215.921 223,216.072 224,216.223 225,216.298 226,216.404 227,216.555 228,216.706 229,216.827 230,216.902 231,216.978 232,216.902 233,216.857 234,216.827 235,216.812 236,216.736 237,216.585 238,216.676 239,216.932 240,217.234 241,217.491 242,217.808 243,218.186 244,218.518 245,218.865 246,219.394 247,219.907 248,220.375 249,220.934 250,221.432 251,222.021 252,222.187 253,222.262 254,222.338 255,222.398 256,222.489 257,222.489 258,222.549 259,222.625 260,222.7 261,222.715 262,221.462 263,220.753 264,219.952 265,219.303 266,218.639 267,218.02 268,217.28 269,216.555 270,215.845 271,215.12 272,214.486 273,213.913 274,213.49 275,213.158 276,212.856 277,212.584 278,212.297 279,212.101 280,211.919 281,211.648 282,211.315 283,210.998 284,210.636 285,210.44 286,210.243 287,210.092 288,209.881 289,209.609 290,209.383 291,208.975 292,208.628 293,208.356 294,207.903 295,207.541 296,207.239 297,206.997 298,206.695 299,206.167 300,205.683 301,205.261 302,204.883 303,204.506 304,204.173 305,203.841 306,203.388 307,202.935 308,202.467 309,201.652 310,200.882 311,200.066 312,199.372 313,198.707 314,198.013 315,197.273 316,196.548 317,195.869 318,195.114 319,194.404 320,193.755 321,192.879 322,193.257 323,193.106 324,193.045 325,192.804 326,192.698 327,192.547 328,192.502 329,192.426 330,192.32 331,192.245 332,192.124 333,191.973 334,191.671 335,191.415 336,191.188 337,190.992 338,190.78 339,190.584 340,190.388 341,190.312 342,190.207 343,190.176 344,190.176 345,190.237 346,190.388 347,190.433 348,190.463 349,190.584 350,190.584 351,190.554 352,190.509 353,190.388 354,190.327 355,190.207 356,189.98 357,189.784 358,189.557 359,189.27 360,188.968 361,188.591 362,188.198 363,187.745 364,187.232 365,186.734 366,186.235 367,185.752 368,185.269 369,185.178 370,185.043 371,184.922 372,184.816 373,184.741 374,184.665 375,184.574 376,184.499 377,184.363 378,184.242 379,184.091 380,183.91 381,183.986 382,184.122 383,184.273 384,184.469 385,184.665 386,184.741 387,184.801 388,184.695 389,184.65 390,184.574 391,184.544 392,184.65 393,184.695 394,184.725 395,184.741 396,184.801 397,184.846 398,184.876 399,184.876 400,184.892 401,184.846 402,184.997 403,185.073 404,185.118 405,185.118 406,184.952 407,184.801 408,184.771 409,184.741 410,184.801 411,184.816 412,184.665 413,184.514 414,184.424 415,184.348 416,184.393 417,184.439 418,184.514 419,184.62 420,184.725 421,184.967 422,185.224 423,185.405 424,185.571 425,185.752 426,185.873 427,186.009 428,186.13 429,186.175 430,186.251 431,186.311 432,186.462 433,186.613 434,186.779 435,187.036 436,187.368 437,187.715 438,188.093 439,188.515 440,188.968 441,189.406 442,189.799 443,190.282 444,190.66 445,191.113 446,191.596 447,192.064 448,192.728 449,193.332 450,193.83 451,194.404 452,194.812 453,195.235 454,195.673 455,196.02 456,196.322 457,196.578 458,196.85 459,197.122 460,197.409 461,197.711 462,197.832 463,197.953 464,198.058 465,198.134 466,198.315 467,198.436 468,198.436 469,198.406 470,198.466 471,198.617 472,198.919 473,199.296 474,199.613 475,199.9 476,200.142 477,200.353 478,200.444 479,200.444 480,200.429 481,200.323 482,200.474 483,200.701 484,200.957 485,201.274 486,201.607 487,202.029 488,202.407 489,202.815 490,203.237 491,203.766 492,204.173 493,204.475 494,204.808 495,205.11 496,205.306 497,205.608 498,205.985 499,206.136 500,206.257 501,206.333 502,206.559 503,206.861 504,207.224 505,206.997 506,206.74 507,206.514 508,206.182 509,205.91 510,206.031 511,206.091 512,206.212 513,206.318 514,206.544 515,206.665 516,207.163 517,207.692 518,208.175 519,208.658 520,209.126 521,209.609 522,210.183 523,210.711 524,211.27 525,211.799 526,212.282 527,212.825 528,213.309 529,213.988 530,214.637 531,215.271 532,215.619 533,215.921 534,216.585 535,217.114 536,217.582 537,218.02 538,218.518 539,219.122 540,219.68 541,220.254 542,220.602 543,220.934 544,221.206 545,221.432 546,221.341 547,221.16 548,221.009 549,220.888 550,220.753 551,220.526 552,220.284 553,220.103 554,219.907 555,219.68 556,219.469 557,219.167 558,218.79 559,218.593 560,218.412 561,218.322 562,218.095 563,217.733 564,217.461 565,217.718 566,218.02 567,218.322 568,218.699 569,219.016 570,219.046 571,219.016 572,218.941 573,218.941 574,218.82 575,218.79 576,218.367 577,217.884 578,217.461 579,216.887 580,216.253 581,215.83 582,215.422 583,215.151 584,214.849 585,214.562 586,214.32 587,214.094 588,214.018 589,213.762 590,213.414 591,212.976 592,212.886 593,212.75 594,212.327 595,211.844 596,211.466 597,211.164 598,210.968 599,210.787 600,210.56 601,210.334 602,210.092 603,209.836 604,209.655 605,209.383 606,209.428 607,209.458 608,209.458 609,209.534 610,209.564 611,209.639 612,209.836 613,210.107 614,210.319 615,210.545 616,210.742 617,210.711 618,210.696 619,210.666 620,210.636 621,211.074 622,211.678 623,212.146 624,212.554 625,213.037 626,213.278 627,213.429 628,213.58 629,213.762 630,213.913 631,214.018 632,213.867 633,213.686 634,213.535 635,213.354 636,213.203 637,213.052 638,212.901 639,212.825 640,212.78 641,212.508 642,212.131 643,211.693 644,211.315 645,210.968 646,210.56 647,210.138 648,209.639 649,209.126 650,208.673 651,208.22 652,207.752 653,207.299 654,206.786 655,206.544 656,206.182 657,205.804 658,205.306 659,204.898 660,204.581 661,204.173 662,204.4 663,204.657 664,204.898 665,205.23 666,205.608 667,206.016 668,206.363 669,206.559 670,206.695 671,206.861 672,206.937 673,206.967 674,207.073 675,207.163 676,207.224 677,207.42 678,207.616 679,207.797 680,207.978 681,207.692 682,207.299 683,206.786 684,206.182 685,205.487 686,205.034 687,204.808 688,204.672 689,204.626 690,204.596 691,204.626 692,204.928 693,205.381 694,205.804 695,206.287 696,206.771 697,207.224 698,207.616 699,208.129 700,208.658 701,209.202 702,209.76 703,210.213 704,210.636 705,211.044 706,211.542 707,212.07 708,212.554 709,212.961 710,213.354 711,213.792 712,214.245 713,214.713 714,215.151 715,215.468 716,215.77 717,216.057 718,216.404 719,216.63 720,216.887 721,217.159 722,216.812 723,216.434 724,216.026 725,215.694 726,214.864 727,213.958 728,213.158 729,212.372 730,211.768 731,211.089 732,210.409 733,209.715 734,209.005 735,208.296 736,207.677 737,207.088 738,206.559 739,206.016 740,205.381 741,204.747 742,204.053 743,203.494 744,203.041 745,202.633 746,202.135 747,201.425 748,200.595 749,199.674 "
          fill="none" stroke="blue" stroke-width="2"/>
  <text x="450" y="30" font-size="19" class="speed-description" fill="black" text-anchor="middle">Correlation Between
    Heart rate (blue) and Accelerometer (green)
  </text>
  <text x="450" y="50" class="speed-description" font-size="11" fill="gray" text-anchor="middle">equation: 0.99915 *
    (0.99979 Z ) + (0.999949 X ) - (0.998303 Y ) * (1.00106 Y )
  </text>
  <text x="450" y="65" class="speed-description" font-size="11" fill="gray" text-anchor="middle">correlation: 0.666325
  </text>
  <text x="50" y="265" font-size="12" fill="black">0</text>
  <text x="100" y="265" font-size="12" fill="black">50</text>
  <text x="150" y="265" font-size="12" fill="black">100</text>
  <text x="200" y="265" font-size="12" fill="black">150</text>
  <text x="250" y="265" font-size="12" fill="black">200</text>
  <text x="300" y="265" font-size="12" fill="black">250</text>
  <text x="350" y="265" font-size="12" fill="black">300</text>
  <text x="400" y="265" font-size="12" fill="black">350</text>
  <text x="450" y="265" font-size="12" fill="black">400</text>
  <text x="500" y="265" font-size="12" fill="black">450</text>
  <text x="550" y="265" font-size="12" fill="black">500</text>
  <text x="600" y="265" font-size="12" fill="black">550</text>
  <text x="650" y="265" font-size="12" fill="black">600</text>
  <text x="700" y="265" font-size="12" fill="black">650</text>
  <text x="15" y="50" font-size="12" fill="black">1</text>
  <text x="15" y="80" font-size="12" fill="black">0.86</text>
  <text x="15" y="110" font-size="12" fill="black">0.72</text>
  <text x="15" y="140" font-size="12" fill="black">0.58</text>
  <text x="15" y="170" font-size="12" fill="black">0.44</text>
  <text x="15" y="200" font-size="12" fill="black">0.3</text>
  <text x="15" y="230" font-size="12" fill="black">0.16</text>
</svg>
